<?xml version="1.0" encoding="UTF-8"?>
<svg width="109px" height="73px" viewBox="0 0 109 73" version="1.1" xmlns="http://www.w3.org/2000/svg" xmlns:xlink="http://www.w3.org/1999/xlink">
    <!-- Generator: Sketch 52.2 (67145) - http://www.bohemiancoding.com/sketch -->
    <title>Shape</title>
    <desc>Created with Sketch.</desc>
    <g id="Page-1" stroke="none" stroke-width="1" fill="none" fill-rule="evenodd">
        <g id="noun_New-York_1497621" fill="#767E88">
            <path d="M62.1559524,38.8018018 L63.7130952,38.8018018 L63.7130952,37.354955 L66.0488095,34.9873874 L69.0333333,34.9873874 L69.0333333,38.8018018 L69.0333333,39.7225225 L69.0333333,52.0864865 L70.85,52.0864865 L70.85,49.5873874 L79.5440476,49.5873874 L79.5440476,67.3441441 L79.9333333,67.3441441 L79.9333333,67.8702703 L80.5821429,67.8702703 L80.5821429,66.0288288 L85.902381,66.0288288 L85.902381,65.3711712 C85.902381,65.3711712 85.902381,61.0306306 86.1619048,58.4 C86.4214286,55.7693694 85.772619,52.3495495 85.772619,51.5603604 C85.6428571,50.7711712 86.0321429,44.3261261 86.2916667,42.3531532 C86.5511905,40.3801802 86.1619048,31.0414414 86.0321429,29.8576577 C85.902381,28.5423423 84.7345238,25.6486486 84.7345238,25.6486486 C84.7345238,25.6486486 82.9178571,23.8072072 83.4369048,22.4918919 C84.0857143,21.1765766 84.8642857,20.1243243 84.8642857,20.1243243 C84.8642857,20.1243243 83.9559524,17.3621622 84.0857143,15.7837838 C84.0857143,14.2054054 83.9559524,13.4162162 83.9559524,13.4162162 C83.9559524,13.4162162 83.4369048,12.363964 83.4369048,11.8378378 C83.4369048,11.5747748 83.3071429,11.1801802 83.3071429,11.1801802 C83.3071429,11.1801802 82.7880952,10.2594595 82.7880952,9.47027027 C82.9178571,8.54954955 83.177381,8.15495495 83.177381,8.15495495 C83.177381,8.15495495 82.7880952,7.76036036 82.7880952,7.36576577 C82.2690476,7.23423423 81.8797619,6.97117117 81.8797619,6.70810811 C81.8797619,6.44504505 81.8797619,6.05045045 81.8797619,5.65585586 C81.8797619,5.26126126 82.5285714,5.12972973 83.3071429,4.9981982 C80.8416667,2.89369369 82.6583333,0.394594595 84.3452381,0 C83.9559524,0.394594595 83.8261905,2.23603604 85.6428571,1.44684685 C85.902381,1.70990991 87.7190476,3.94594595 85.5130952,4.9981982 C86.4214286,4.9981982 86.8107143,5.26126126 86.8107143,5.65585586 C86.8107143,6.05045045 86.8107143,6.44504505 86.8107143,6.70810811 C86.8107143,7.1027027 86.4214286,7.23423423 85.6428571,7.36576577 C85.6428571,7.89189189 85.2535714,8.02342342 85.1238095,8.41801802 C85.1238095,8.41801802 85.902381,9.20720721 85.902381,10.1279279 C85.772619,10.9171171 85.902381,12.2324324 85.902381,12.7585586 C85.902381,13.2846847 87.0702381,15.9153153 87.2,17.4936937 C87.2,17.7567568 87.2,18.1513514 87.2,18.5459459 C87.3297619,18.9405405 87.5892857,19.8612613 87.7190476,19.9927928 C87.9785714,20.2558559 88.1083333,20.9135135 88.1083333,21.5711712 C88.2380952,22.2288288 88.8869048,23.018018 89.1464286,23.2810811 C89.5357143,23.5441441 89.925,23.6756757 89.925,23.6756757 L90.0547619,22.2288288 C90.0547619,22.2288288 89.925,21.8342342 89.7952381,20.781982 C89.6654762,20.6504505 89.5357143,20.3873874 89.5357143,20.2558559 C89.4059524,20.2558559 89.4059524,20.1243243 89.4059524,20.1243243 C89.4059524,20.1243243 88.627381,19.9927928 88.1083333,19.9927928 C87.9785714,19.7297297 87.9785714,19.5981982 87.8488095,19.3351351 C88.497619,19.2036036 89.4059524,19.3351351 89.4059524,19.3351351 L89.4059524,19.0720721 L87.7190476,18.2828829 C87.5892857,18.2828829 87.4595238,17.8882883 87.4595238,17.7567568 L89.925,18.4144144 L90.1845238,18.0198198 C90.1845238,18.0198198 88.3678571,15.2576577 88.627381,15.3891892 C88.7571429,15.3891892 91.222619,17.6252252 91.222619,17.6252252 C91.6119048,17.4936937 91.6119048,17.4936937 92.0011905,17.4936937 L92.5202381,13.9423423 L93.0392857,17.4936937 C93.2988095,17.4936937 93.5583333,17.4936937 93.8178571,17.6252252 C94.077381,17.3621622 95.7642857,15.7837838 96.2833333,15.3891892 C96.4130952,15.2576577 95.1154762,17.6252252 94.8559524,18.0198198 C94.9857143,18.0198198 94.9857143,18.1513514 95.1154762,18.2828829 L98.4892857,17.4936937 L95.6345238,19.0720721 C95.7642857,19.2036036 95.6345238,19.2036036 95.7642857,19.3351351 C96.802381,19.4666667 98.7488095,19.5981982 98.8785714,19.7297297 C99.0083333,19.7297297 96.802381,20.1243243 95.7642857,20.2558559 C95.7642857,20.3873874 95.6345238,20.3873874 95.6345238,20.6504505 C95.6345238,21.045045 95.7642857,21.5711712 95.6345238,21.8342342 C95.5047619,22.2288288 95.375,23.2810811 95.6345238,23.9387387 C95.7642857,24.3333333 96.0238095,25.2540541 96.2833333,25.9117117 C96.9321429,26.1747748 97.7107143,26.4378378 97.9702381,26.963964 C98.7488095,28.0162162 98.4892857,29.7261261 99.2678571,30.3837838 C99.9166667,31.172973 101.214286,31.8306306 101.214286,31.8306306 L102.641667,29.9891892 L105.885714,31.3045045 L106.275,31.8306306 L105.366667,33.5405405 C105.366667,33.5405405 105.885714,34.0666667 105.62619,34.5927928 C105.366667,35.1189189 104.977381,36.1711712 104.328571,36.4342342 C103.809524,36.8288288 103.420238,37.2234234 103.420238,37.2234234 C102.252381,40.5117117 102.382143,40.1171171 99.7869048,41.563964 C99.6571429,41.563964 100.565476,48.2720721 100.305952,48.4036036 C99.9166667,48.6666667 99.527381,49.7189189 99.527381,49.7189189 C99.527381,49.7189189 100.17619,59.9783784 99.6571429,60.5045045 C99.2678571,61.1621622 99.1380952,61.8198198 99.1380952,61.8198198 L99.2678571,65.6342342 L99.397619,66.0288288 L106.664286,66.0288288 L106.664286,67.8702703 L109,67.8702703 L109,73 L79.9333333,73 L78.7654762,73 L78.1166667,73 L0,73 C0,69.0540541 0,65.1081081 0,61.0306306 L0.778571429,61.0306306 L0.778571429,55.3747748 L4.02261905,55.3747748 L4.02261905,61.0306306 L4.80119048,61.0306306 L4.80119048,65.7657658 L5.83928571,65.7657658 L5.83928571,70.2378378 L6.61785714,70.2378378 L6.61785714,46.5621622 L14.7928571,46.5621622 L14.7928571,52.8756757 L16.2202381,52.8756757 L16.2202381,34.7243243 L16.8690476,34.7243243 L16.8690476,27.3585586 L17.647619,27.3585586 L17.647619,23.5441441 L19.5940476,23.5441441 L21.5404762,25.5171171 L21.5404762,27.3585586 L22.5785714,27.3585586 L22.5785714,34.7243243 L24.1357143,34.7243243 L24.1357143,56.9531532 L25.4333333,56.9531532 L25.4333333,65.7657658 L26.3416667,65.7657658 L26.3416667,53.9279279 L28.0285714,53.9279279 L28.0285714,49.3243243 L29.3261905,49.3243243 L29.3261905,44.3261261 L30.1047619,44.3261261 L30.1047619,36.9603604 L30.6238095,36.9603604 L30.6238095,44.3261261 L31.402381,44.3261261 L31.402381,49.3243243 L32.8297619,49.3243243 L32.8297619,53.9279279 L34.3869048,53.9279279 L34.3869048,64.4504505 L37.7607143,64.4504505 L37.7607143,68.0018018 L38.9285714,68.0018018 L38.9285714,63.2666667 L43.6,63.2666667 L43.6,67.2126126 L44.3785714,67.2126126 L44.3785714,70.2378378 L45.1571429,70.2378378 L45.1571429,52.8756757 L50.477381,52.8756757 L50.477381,64.4504505 L51.775,64.4504505 L51.775,42.2216216 L52.4238095,42.2216216 L52.4238095,41.563964 L52.9428571,41.563964 L52.9428571,41.0378378 L54.8892857,41.0378378 L54.8892857,38.5387387 L55.1488095,38.5387387 L55.1488095,35.381982 L55.2785714,35.381982 L55.2785714,38.5387387 L55.4083333,38.5387387 L55.4083333,41.0378378 L57.4845238,41.0378378 L57.4845238,41.563964 L57.8738095,41.563964 L57.8738095,42.2216216 L58.652381,42.2216216 L58.652381,53.5333333 L60.4690476,53.5333333 L60.4690476,65.5027027 L62.1559524,65.5027027 L62.1559524,38.8018018 Z M82.2690476,5.78738739 C83.4369048,5.39279279 84.7345238,5.26126126 85.902381,5.39279279 C86.0321429,5.39279279 86.6809524,5.78738739 85.902381,5.78738739 C85.3833333,5.65585586 81.4904762,5.91891892 82.2690476,5.78738739 Z M84.475,13.8108108 C84.2154762,13.9423423 84.2154762,17.0990991 84.6047619,17.4936937 C85.1238095,18.4144144 84.8642857,19.0720721 85.3833333,17.7567568 C85.5130952,17.3621622 84.7345238,14.9945946 84.8642857,14.3369369 C84.8642857,14.0738739 84.475,13.8108108 84.475,13.8108108 Z M84.6047619,2.23603604 C84.8642857,2.63063063 85.3833333,2.63063063 85.772619,3.15675676 C86.1619048,3.68288288 85.2535714,4.34054054 85.1238095,3.68288288 C84.9940476,3.15675676 84.8642857,2.89369369 84.7345238,2.4990991 C84.6047619,2.36756757 84.6047619,2.23603604 84.6047619,2.23603604 Z M83.5666667,1.05225225 C82.9178571,2.23603604 82.6583333,3.41981982 84.0857143,4.34054054 C84.0857143,4.34054054 85.1238095,4.6036036 84.6047619,3.81441441 C84.0857143,2.76216216 83.6964286,2.36756757 83.5666667,1.05225225 Z M95.375,28.0162162 C95.375,29.0684685 93.2988095,33.2774775 92.5202381,34.3297297 C91.7416667,35.381982 90.3142857,37.2234234 89.0166667,37.4864865 C88.497619,37.618018 86.4214286,38.0126126 87.2,36.6972973 C87.4595238,36.0396396 90.9630952,34.7243243 92.2607143,32.6198198 C92.7797619,31.436036 95.375,29.3315315 95.375,28.0162162 Z M89.5357143,25.1225225 C90.3142857,24.0702703 90.7035714,25.3855856 92.7797619,25.3855856 C93.6880952,25.3855856 94.7261905,26.0432432 94.5964286,27.0954955 C94.3369048,28.6738739 86.8107143,36.6972973 87.2,34.0666667 C87.2,33.5405405 89.2761905,32.4882883 89.925,31.5675676 C90.8333333,30.2522523 90.7035714,30.3837838 91.0928571,28.9369369 C91.222619,28.8054054 87.2,33.8036036 87.0702381,31.3045045 C87.0702381,30.9099099 89.1464286,29.9891892 89.5357143,29.2 C89.7952381,28.9369369 91.6119048,25.7801802 89.925,27.4900901 C89.5357143,28.0162162 88.627381,29.2 88.627381,28.9369369 C88.497619,28.2792793 89.1464286,25.6486486 89.5357143,25.1225225 Z M88.2380952,23.4126126 C88.8869048,25.1225225 85.2535714,28.4108108 87.4595238,28.0162162 C88.2380952,27.8846847 89.6654762,24.5963964 88.3678571,23.5441441 L88.2380952,23.4126126 Z M83.6964286,23.1495495 C83.6964286,23.018018 84.2154762,23.5441441 84.6047619,23.5441441 C86.5511905,23.5441441 87.7190476,20.2558559 87.7190476,20.781982 C87.7190476,22.4918919 86.8107143,23.8072072 84.7345238,23.8072072 C84.2154762,23.9387387 83.6964286,23.2810811 83.6964286,23.1495495 Z M96.1535714,26.7009009 C96.1535714,29.0684685 96.2833333,30.2522523 95.375,32.4882883 C93.947619,35.5135135 93.4285714,36.3027027 90.7035714,38.1441441 C89.7952381,38.9333333 87.9785714,39.590991 87.7190476,39.7225225 C87.8488095,39.8540541 91.8714286,41.0378378 92.9095238,40.2486486 C94.4666667,38.9333333 94.7261905,38.6702703 95.5047619,36.6972973 C96.1535714,34.8558559 96.802381,29.3315315 96.4130952,27.3585586 C96.2833333,27.0954955 96.1535714,26.963964 96.1535714,26.7009009 Z M93.0392857,21.5711712 C93.0392857,21.7027027 92.9095238,21.7027027 92.7797619,21.7027027 C92.5202381,21.7027027 92.3904762,21.8342342 92.3904762,21.8342342 L92.65,22.0972973 L92.65,22.2288288 C92.5202381,22.3603604 92.2607143,22.2288288 92.1309524,22.4918919 C92.1309524,22.6234234 92.65,22.3603604 92.7797619,22.754955 C92.7797619,22.754955 93.0392857,23.1495495 93.0392857,23.2810811 C93.0392857,23.4126126 92.9095238,23.4126126 92.7797619,23.4126126 C92.5202381,23.4126126 91.6119048,23.2810811 91.352381,23.018018 C91.222619,22.6234234 91.0928571,21.8342342 91.222619,21.7027027 C91.352381,21.5711712 92.0011905,21.1765766 92.1309524,21.1765766 C92.2607143,21.1765766 92.3904762,20.781982 92.2607143,20.6504505 C92.2607143,20.5189189 91.6119048,20.3873874 91.6119048,20.3873874 C91.6119048,20.3873874 92.2607143,18.809009 93.947619,20.2558559 C93.947619,20.2558559 93.1690476,20.3873874 93.0392857,20.5189189 C92.9095238,20.6504505 93.0392857,21.4396396 93.0392857,21.5711712 Z M93.6880952,22.2288288 C93.5583333,22.3603604 93.1690476,21.3081081 93.4285714,21.3081081 C93.4285714,21.3081081 94.077381,21.3081081 94.077381,21.4396396 C94.077381,21.5711712 93.947619,22.2288288 93.6880952,22.2288288 Z M93.4285714,19.3351351 C92.0011905,19.0720721 92.0011905,19.4666667 90.8333333,20.2558559 C90.4440476,20.5189189 90.3142857,19.7297297 90.3142857,19.7297297 C90.7035714,19.0720721 91.7416667,18.6774775 92.1309524,18.6774775 C92.5202381,18.5459459 94.077381,18.809009 94.3369048,19.0720721 C94.7261905,19.3351351 94.9857143,19.8612613 94.8559524,19.9927928 C94.8559524,20.1243243 93.5583333,19.3351351 93.4285714,19.3351351 Z" id="Shape"></path>
        </g>
    </g>
</svg>